<mxfile host="app.diagrams.net" agent="Mozilla/5.0 (Windows NT 10.0; Win64; x64) AppleWebKit/537.36 (KHTML, like Gecko) Chrome/128.0.0.0 Safari/537.36" version="24.7.13">
  <diagram name="第 1 页" id="LvspWGDVvsqheb7RMKRR">
    <mxGraphModel dx="659" dy="339" grid="1" gridSize="10" guides="1" tooltips="1" connect="1" arrows="1" fold="1" page="1" pageScale="1" pageWidth="2336" pageHeight="1654" math="0" shadow="0">
      <root>
        <mxCell id="0" />
        <mxCell id="1" parent="0" />
        <mxCell id="ktVLUo-EPOUu5IFAiA05-3" value="" style="rounded=0;whiteSpace=wrap;html=1;movable=0;resizable=0;rotatable=0;deletable=0;editable=0;locked=1;connectable=0;" vertex="1" parent="1">
          <mxGeometry x="30" y="472" width="910" height="710" as="geometry" />
        </mxCell>
        <mxCell id="ktVLUo-EPOUu5IFAiA05-1" value="&lt;font face=&quot;Comic Sans MS&quot; style=&quot;font-size: 30px;&quot;&gt;&lt;b&gt;Kubectl(user commands)&lt;/b&gt;&lt;/font&gt;" style="rounded=0;whiteSpace=wrap;html=1;" vertex="1" parent="1">
          <mxGeometry x="70" y="20" width="400" height="90" as="geometry" />
        </mxCell>
        <mxCell id="ktVLUo-EPOUu5IFAiA05-2" value="" style="endArrow=classic;html=1;rounded=0;strokeWidth=4;exitX=0.4;exitY=1.015;exitDx=0;exitDy=0;exitPerimeter=0;entryX=0.262;entryY=0.005;entryDx=0;entryDy=0;entryPerimeter=0;" edge="1" parent="1" target="ktVLUo-EPOUu5IFAiA05-3">
          <mxGeometry width="50" height="50" relative="1" as="geometry">
            <mxPoint x="269.40999999999997" y="110.00000000000003" as="sourcePoint" />
            <mxPoint x="269.40999999999997" y="478.65" as="targetPoint" />
          </mxGeometry>
        </mxCell>
        <mxCell id="ktVLUo-EPOUu5IFAiA05-4" value="" style="rounded=0;whiteSpace=wrap;html=1;" vertex="1" parent="1">
          <mxGeometry x="80" y="550" width="590" height="320" as="geometry" />
        </mxCell>
        <mxCell id="ktVLUo-EPOUu5IFAiA05-5" value="" style="rounded=0;whiteSpace=wrap;html=1;" vertex="1" parent="1">
          <mxGeometry x="380" y="490" width="210" height="110" as="geometry" />
        </mxCell>
        <mxCell id="ktVLUo-EPOUu5IFAiA05-6" value="&lt;b&gt;&lt;font face=&quot;Comic Sans MS&quot; style=&quot;font-size: 30px;&quot;&gt;APIs&lt;/font&gt;&lt;/b&gt;" style="text;html=1;align=center;verticalAlign=middle;whiteSpace=wrap;rounded=0;" vertex="1" parent="1">
          <mxGeometry x="88" y="561" width="60" height="30" as="geometry" />
        </mxCell>
      </root>
    </mxGraphModel>
  </diagram>
</mxfile>
